<svg width="512" height="512" viewBox="0 0 512 512" fill="none" xmlns="http://www.w3.org/2000/svg">
  <defs>
    <linearGradient id="bg-gradient" x1="0" y1="0" x2="512" y2="512" gradientUnits="userSpaceOnUse">
      <stop offset="0" stop-color="#FCD34D"/>
      <stop offset="1" stop-color="#F59E0B"/>
    </linearGradient>
    <filter id="soft-shadow" x="0" y="0" width="512" height="512" filterUnits="userSpaceOnUse" color-interpolation-filters="sRGB">
      <feFlood flood-opacity="0.15" result="BackgroundImageFix"/>
      <feColorMatrix in="SourceAlpha" type="matrix" values="0 0 0 0 0 0 0 0 0 0 0 0 0 0 0 0 0 0 127 0" result="hardAlpha"/>
      <feOffset dy="8"/>
      <feGaussianBlur stdDeviation="12"/>
      <feComposite in2="hardAlpha" operator="out"/>
      <feColorMatrix type="matrix" values="0 0 0 0 0.7 0 0 0 0 0.4 0 0 0 0 0 0 0 0 0.2 0"/>
      <feBlend mode="normal" in2="BackgroundImageFix" result="effect1_dropShadow"/>
      <feBlend mode="normal" in="SourceGraphic" in2="effect1_dropShadow" result="shape"/>
    </filter>
  </defs>
  
  <!-- Background: Squircle -->
  <rect width="512" height="512" rx="128" fill="url(#bg-gradient)"/>
  
  <!-- Main Icon Group -->
  <g filter="url(#soft-shadow)">
    <!-- Piggy Bank Body -->
    <path d="M380 200C380 155.817 344.183 120 300 120H180C135.817 120 100 155.817 100 200V220C100 231.046 91.0457 240 80 240C68.9543 240 60 248.954 60 260V280C60 291.046 68.9543 300 80 300H100V340C100 362.091 117.909 380 140 380H160C182.091 380 200 362.091 200 340V320H280V340C280 362.091 297.909 380 320 380H340C362.091 380 380 362.091 380 340V200Z" fill="white"/>
    
    <!-- Ear -->
    <path d="M300 120L320 80H360L340 120H300Z" fill="white"/>
    
    <!-- Eye -->
    <circle cx="320" cy="180" r="12" fill="#F59E0B"/>
    
    <!-- Coin Slot -->
    <rect x="200" y="140" width="80" height="12" rx="6" fill="#F59E0B" fill-opacity="0.2"/>
    
    <!-- Coin -->
    <circle cx="240" cy="90" r="36" fill="white"/>
    <path d="M240 72V108M222 90H258" stroke="#F59E0B" stroke-width="8" stroke-linecap="round" stroke-linejoin="round"/>
  </g>
</svg>